<svg width="96" height="96" viewBox="0 0 96 96" fill="none" xmlns="http://www.w3.org/2000/svg">
<g clip-path="url(#clip0_373_23639)">
<rect x="-0.000976562" y="-0.000488281" width="96.0011" height="96.0011" rx="30" fill="#CADAFA"/>
<path fill-rule="evenodd" clip-rule="evenodd" d="M35.8918 18.6661C24.1589 18.6661 14.6475 28.1776 14.6475 39.9105C14.6475 45.9586 17.1748 51.4164 21.231 55.2854L20.3091 64.6073L29.9919 60.3249C31.8651 60.8653 33.8446 61.1549 35.8918 61.1549H41.2794C53.0124 61.1549 62.5238 51.6435 62.5238 39.9105C62.5238 28.1776 53.0124 18.6661 41.2794 18.6661H35.8918Z" fill="#799DE6"/>
<path d="M21.231 55.2854L22.8482 55.4453C22.8974 54.9475 22.7146 54.4548 22.3526 54.1095L21.231 55.2854ZM20.3091 64.6073L18.692 64.4474C18.6351 65.0226 18.8881 65.5848 19.3564 65.9237C19.8247 66.2626 20.4378 66.3273 20.9664 66.0934L20.3091 64.6073ZM29.9919 60.3249L30.4423 58.7636C30.0757 58.6578 29.6835 58.6844 29.3346 58.8388L29.9919 60.3249ZM16.2725 39.9105C16.2725 29.075 25.0564 20.2911 35.8918 20.2911V17.0411C23.2614 17.0411 13.0225 27.2801 13.0225 39.9105H16.2725ZM22.3526 54.1095C18.6045 50.5344 16.2725 45.4962 16.2725 39.9105H13.0225C13.0225 46.421 15.7451 52.2983 20.1095 56.4612L22.3526 54.1095ZM21.9263 64.7672L22.8482 55.4453L19.6139 55.1254L18.692 64.4474L21.9263 64.7672ZM29.3346 58.8388L19.6519 63.1212L20.9664 66.0934L30.6491 61.811L29.3346 58.8388ZM35.8918 59.5299C33.9986 59.5299 32.1706 59.2622 30.4423 58.7636L29.5414 61.8862C31.5596 62.4685 33.6907 62.7799 35.8918 62.7799V59.5299ZM41.2794 59.5299H35.8918V62.7799H41.2794V59.5299ZM60.8988 39.9105C60.8988 50.746 52.1149 59.5299 41.2794 59.5299V62.7799C53.9099 62.7799 64.1488 52.5409 64.1488 39.9105H60.8988ZM41.2794 20.2911C52.1149 20.2911 60.8988 29.075 60.8988 39.9105H64.1488C64.1488 27.2801 53.9098 17.0411 41.2794 17.0411V20.2911ZM35.8918 20.2911H41.2794V17.0411H35.8918V20.2911Z" fill="#3B66BC"/>
<path fill-rule="evenodd" clip-rule="evenodd" d="M60.1062 31.3929C71.8392 31.3929 81.3506 40.9044 81.3506 52.6373C81.3506 58.3285 79.1127 63.497 75.4689 67.3108L76.4602 77.3342L66.4651 72.9136C64.4574 73.5427 62.3214 73.8817 60.1062 73.8817H54.7186C42.9857 73.8817 33.4742 64.3703 33.4742 52.6373C33.4742 40.9044 42.9857 31.3929 54.7186 31.3929H60.1062Z" fill="#FFFEFB"/>
<path d="M75.4689 67.3108L73.8518 67.4707C73.8052 66.9992 73.9667 66.5308 74.294 66.1883L75.4689 67.3108ZM76.4602 77.3342L78.0773 77.1743C78.1342 77.7495 77.8812 78.3117 77.4129 78.6506C76.9447 78.9895 76.3316 79.0541 75.8029 78.8203L76.4602 77.3342ZM66.4651 72.9136L65.9793 71.363C66.3555 71.2451 66.7618 71.268 67.1224 71.4275L66.4651 72.9136ZM79.7256 52.6373C79.7256 41.8018 70.9417 33.0179 60.1062 33.0179V29.7679C72.7366 29.7679 82.9756 40.0069 82.9756 52.6373H79.7256ZM74.294 66.1883C77.6605 62.6646 79.7256 57.8939 79.7256 52.6373H82.9756C82.9756 58.7631 80.5649 64.3293 76.6439 68.4334L74.294 66.1883ZM74.8431 77.4941L73.8518 67.4707L77.0861 67.1509L78.0773 77.1743L74.8431 77.4941ZM67.1224 71.4275L77.1175 75.8481L75.8029 78.8203L65.8078 74.3998L67.1224 71.4275ZM60.1062 72.2567C62.1547 72.2567 64.127 71.9433 65.9793 71.363L66.9509 74.4643C64.7878 75.142 62.488 75.5067 60.1062 75.5067V72.2567ZM54.7186 72.2567H60.1062V75.5067H54.7186V72.2567ZM35.0992 52.6373C35.0992 63.4728 43.8831 72.2567 54.7186 72.2567V75.5067C42.0882 75.5067 31.8492 65.2677 31.8492 52.6373H35.0992ZM54.7186 33.0179C43.8831 33.0179 35.0992 41.8018 35.0992 52.6373H31.8492C31.8492 40.0069 42.0882 29.7679 54.7186 29.7679V33.0179ZM60.1062 33.0179H54.7186V29.7679H60.1062V33.0179Z" fill="#3B66BC"/>
<circle cx="47.028" cy="52.7403" r="3.47916" fill="#799DE6"/>
<circle cx="57.4118" cy="52.7403" r="3.47916" fill="#799DE6"/>
<circle cx="67.7946" cy="52.7403" r="3.47916" fill="#799DE6"/>
</g>
<defs>
<clipPath id="clip0_373_23639">
<rect width="96" height="96" fill="white"/>
</clipPath>
</defs>
</svg>
