<svg width="32" height="32" viewBox="0 0 32 32" fill="none" xmlns="http://www.w3.org/2000/svg">
<circle cx="14.5781" cy="15.3438" r="10.4375" fill="#FFFEFB" stroke="#3B66BC" stroke-width="1.5"/>
<circle cx="14.5777" cy="15.3438" r="6.23981" fill="#FFFEFB" stroke="#3B66BC" stroke-width="1.5"/>
<circle cx="14.5781" cy="15.3438" r="2.15334" fill="#3B66BC"/>
<path d="M14.362 15.0664L7.38477 8.08911" stroke="#3B66BC" stroke-width="1.5" stroke-linejoin="round"/>
<path d="M21.7597 26.877C18.7126 25.214 17.2031 22.7736 17.2031 19.52V18.9354C17.2031 18.5067 17.4878 18.1321 17.8948 17.9976C19.7323 17.3903 20.9237 16.6782 21.6365 16.1447C22.1284 15.7764 22.9186 15.7684 23.4078 16.1403C24.145 16.7008 25.3635 17.4477 27.145 18.0063C27.5629 18.1374 27.8601 18.5172 27.8601 18.9552V19.52C27.8601 22.778 26.31 25.2211 23.1792 26.8849C22.6457 27.1684 22.2799 27.1609 21.7597 26.877Z" fill="#FFFEFB" stroke="#3B66BC" stroke-width="1.5" stroke-linejoin="round"/>
<path d="M20.8184 21.5499L22.1392 22.9045L24.3679 20.2627" stroke="#3B66BC" stroke-width="1.5" stroke-linecap="round" stroke-linejoin="round"/>
</svg>
