<svg width="20" height="20" viewBox="0 0 20 20" fill="none" xmlns="http://www.w3.org/2000/svg">
<g clip-path="url(#clip0_3215_19950)">
<path fill-rule="evenodd" clip-rule="evenodd" d="M0 10.0886C0 4.49705 4.27735 0.251953 9.86895 0.251953C15.4605 0.251953 19.9959 4.49705 19.9959 10.0886C19.9959 14.5595 17.2626 18.3853 13.2312 19.7238C12.7192 19.8165 12.5337 19.498 12.5337 19.236C12.5337 19.1269 12.535 18.8707 12.5368 18.5277L12.5368 18.5266C12.5404 17.8299 12.5458 16.7755 12.5458 15.8657C12.5458 14.9183 12.2314 14.3136 11.8605 13.9951C14.114 13.7411 16.4886 13.4307 16.4886 9.54037C16.4886 8.43576 16.0935 7.87942 15.4484 7.16586C15.5533 6.90382 15.8959 5.82742 15.3436 4.42852C14.5011 4.16244 12.5619 5.517 12.5619 5.517C11.7557 5.29124 10.8889 5.17433 10.0302 5.17433C9.17151 5.17433 8.30475 5.29124 7.49846 5.517C7.49846 5.517 5.55935 4.16647 4.71678 4.42852C4.16447 5.82339 4.50714 6.90382 4.61196 7.16586C3.96693 7.87539 3.66054 8.43173 3.66054 9.54037C3.66054 13.4186 5.93427 13.7452 8.18784 13.9951C7.89758 14.2612 7.63553 14.7087 7.54281 15.3537C6.96631 15.6198 5.48678 16.0673 4.6039 14.5111C4.05159 13.5516 3.04776 13.471 3.04776 13.471C2.06006 13.4589 2.98326 14.0919 2.98326 14.0919C3.64441 14.3942 4.104 15.5674 4.104 15.5674C4.69662 17.3734 7.51862 16.7687 7.51862 16.7687C7.51862 17.3171 7.5237 18.0888 7.52727 18.6324L7.52727 18.6326L7.52727 18.6327V18.6328L7.52727 18.6329L7.52729 18.6347L7.52729 18.6352C7.52922 18.9294 7.53071 19.1563 7.53071 19.244C7.53071 19.5061 7.3493 19.8246 6.83328 19.7318C2.81394 18.3853 0 14.5595 0 10.0886ZM5.60771 15.9665C5.48674 15.9424 5.4061 15.8496 5.43432 15.769C5.46255 15.6884 5.57948 15.6481 5.68432 15.6763C5.80529 15.7126 5.88191 15.8053 5.85771 15.8859C5.83352 15.9665 5.71255 16.0069 5.60771 15.9665ZM6.47855 16.0954C6.59547 16.0954 6.68819 16.0309 6.68819 15.9503C6.68819 15.8576 6.58337 15.7931 6.46243 15.8052C6.34552 15.8052 6.25279 15.8697 6.25279 15.9503C6.25279 16.043 6.34552 16.1075 6.47855 16.0954ZM7.21614 15.7004C7.09923 15.7287 7.0186 15.8052 7.03069 15.898C7.04279 15.9786 7.14761 16.031 7.26855 16.0028C7.38546 15.9746 7.46609 15.898 7.45399 15.8173C7.4419 15.7407 7.33305 15.6883 7.21614 15.7004ZM3.9186 14.1564C3.86619 14.1967 3.87828 14.2894 3.94682 14.366C4.01132 14.4305 4.10404 14.4587 4.15645 14.4063C4.20886 14.366 4.19677 14.2733 4.12823 14.1967C4.06373 14.1322 3.97101 14.104 3.9186 14.1564ZM3.57574 13.987C3.49511 13.9466 3.4548 13.8821 3.48302 13.8297C3.51124 13.7894 3.57574 13.7773 3.65637 13.8015C3.737 13.8418 3.77731 13.9063 3.74909 13.9587C3.72087 14.0152 3.64024 14.0273 3.57574 13.987ZM4.78931 15.2649C4.72481 15.3173 4.749 15.4383 4.84172 15.5149C4.93444 15.6076 5.05136 15.6197 5.10376 15.5552C5.15617 15.5028 5.13198 15.3818 5.05136 15.3052C4.96266 15.2125 4.84172 15.2004 4.78931 15.2649ZM4.32965 14.9102C4.26515 14.8175 4.26515 14.7127 4.32965 14.6724C4.39415 14.62 4.49897 14.6603 4.55541 14.753C4.61991 14.8457 4.61991 14.9506 4.55541 15.003C4.503 15.0433 4.39415 15.003 4.32965 14.9102Z" fill="#FFFEFB"/>
</g>
<defs>
<clipPath id="clip0_3215_19950">
<rect width="20" height="20" fill="white"/>
</clipPath>
</defs>
</svg>
