<svg width="20" height="20" viewBox="0 0 20 20" fill="none" xmlns="http://www.w3.org/2000/svg">
<g clip-path="url(#clip0_3215_19967)">
<path fill-rule="evenodd" clip-rule="evenodd" d="M19.9303 5.87638C19.8544 4.27424 19.4885 2.85507 18.3147 1.68582C17.1455 0.516568 15.7263 0.150619 14.1242 0.070289C12.4729 -0.0234297 7.52371 -0.0234297 5.87247 0.070289C4.2748 0.146156 2.85563 0.512105 1.68191 1.68136C0.508199 2.85061 0.146713 4.26978 0.0663827 5.87192C-0.0273359 7.52315 -0.0273359 12.4724 0.0663827 14.1236C0.14225 15.7258 0.508199 17.1449 1.68191 18.3142C2.85563 19.4834 4.27033 19.8494 5.87247 19.9297C7.52371 20.0234 12.4729 20.0234 14.1242 19.9297C15.7263 19.8538 17.1455 19.4879 18.3147 18.3142C19.484 17.1449 19.8499 15.7258 19.9303 14.1236C20.024 12.4724 20.024 7.52761 19.9303 5.87638ZM15.3382 5.85853C15.9987 5.85853 16.5342 5.32746 16.5342 4.66251C16.5342 4.00201 15.9987 3.46648 15.3382 3.46648C14.6777 3.46648 14.1422 4.00201 14.1422 4.66251C14.1422 5.323 14.6733 5.85853 15.3382 5.85853ZM10.0006 4.87228C7.16224 4.87228 4.87282 7.1617 4.87282 10C4.87282 12.8384 7.16224 15.1278 10.0006 15.1278C12.8389 15.1278 15.1283 12.8384 15.1283 10C15.1283 7.1617 12.8389 4.87228 10.0006 4.87228ZM10.0006 13.3337C8.16638 13.3337 6.66688 11.8387 6.66688 10C6.66688 8.16138 8.16192 6.66634 10.0006 6.66634C11.8393 6.66634 13.3343 8.16138 13.3343 10C13.3343 11.8387 11.8348 13.3337 10.0006 13.3337ZM15.8959 17.7965C16.7751 17.4439 17.4489 16.7701 17.797 15.8953C18.2449 14.77 18.22 12.3083 18.2038 10.7126C18.2011 10.4479 18.1987 10.207 18.1987 10C18.1987 9.79296 18.2011 9.55213 18.2038 9.28752C18.22 7.69263 18.2449 5.23383 17.797 4.10465C17.4445 3.22548 16.7706 2.5516 15.8959 2.2035C14.767 1.75807 12.2934 1.7818 10.6981 1.7971C10.4393 1.79959 10.2036 1.80185 10.0005 1.80185C9.7935 1.80185 9.55267 1.79941 9.28806 1.79673C7.69317 1.78057 5.23437 1.75566 4.10519 2.2035C3.22602 2.55606 2.55214 3.22994 2.20404 4.10465C1.75862 5.23357 1.78234 7.70717 1.79765 9.30244C1.80013 9.56124 1.80239 9.79692 1.80239 10C1.80239 10.207 1.79995 10.4479 1.79727 10.7125C1.78111 12.3074 1.7562 14.7662 2.20404 15.8953C2.5566 16.7745 3.23048 17.4484 4.10519 17.7965C5.23411 18.2419 7.70771 18.2182 9.30299 18.2029C9.56178 18.2004 9.79746 18.1981 10.0005 18.1981C10.2076 18.1981 10.4484 18.2006 10.713 18.2033C12.3079 18.2194 14.7667 18.2443 15.8959 17.7965Z" fill="#FFFEFB"/>
</g>
<defs>
<clipPath id="clip0_3215_19967">
<rect width="20" height="20" fill="white"/>
</clipPath>
</defs>
</svg>
