<svg width="20" height="20" viewBox="0 0 20 20" fill="none" xmlns="http://www.w3.org/2000/svg">
<g clip-path="url(#clip0_3215_19957)">
<path fill-rule="evenodd" clip-rule="evenodd" d="M1.4202 0H18.5675C19.3532 0 19.9961 0.647321 19.9961 1.44196V18.558C19.9961 19.3527 19.3532 20 18.5675 20H1.4202C0.634487 20 -0.00390625 19.3527 -0.00390625 18.558V1.44196C-0.00390625 0.647321 0.634487 0 1.4202 0ZM3.07648 17.1427H6.04077H6.04523V7.5981H3.07648V17.1427ZM4.55864 6.29461C3.60775 6.29461 2.83989 5.52229 2.83989 4.57586C2.83989 3.62943 3.60775 2.85711 4.55864 2.85711C5.50507 2.85711 6.27739 3.62943 6.27739 4.57586C6.27739 5.52675 5.50953 6.29461 4.55864 6.29461ZM14.188 17.1428H17.1523V11.9106C17.1523 9.33918 16.5942 7.36151 13.5942 7.36151C12.1523 7.36151 11.1835 8.15168 10.7862 8.90168H10.746V7.59811H7.90226V17.1428H10.8665V12.4195C10.8665 11.174 11.1031 9.96865 12.6478 9.96865C14.1656 9.96865 14.188 11.3928 14.188 12.4999V17.1428Z" fill="#FFFEFB"/>
</g>
<defs>
<clipPath id="clip0_3215_19957">
<rect width="20" height="20" fill="white"/>
</clipPath>
</defs>
</svg>
