<svg width="32" height="32" viewBox="0 0 32 32" fill="none" xmlns="http://www.w3.org/2000/svg">
<path d="M20.166 14.237V9.57129C20.166 7.27046 18.3008 5.40527 16 5.40527V5.40527C13.6992 5.40527 11.834 7.27046 11.834 9.57129V14.237" stroke="#3B66BC" stroke-width="1.5"/>
<rect x="7.5625" y="13.47" width="16.875" height="13.125" rx="3.66324" fill="#FFFEFB" stroke="#3B66BC" stroke-width="1.5" stroke-linejoin="round"/>
<path d="M14.3889 17.4675L13.0244 17.4674C11.586 17.4672 10.4318 18.6331 10.4465 20.0714V20.0714C10.4612 21.5098 11.6391 22.6759 13.0775 22.6761L14.442 22.6762" stroke="#3B66BC" stroke-width="1.5" stroke-linecap="round"/>
<path d="M17.5574 17.4675L18.9218 17.4674C20.3603 17.4672 21.5145 18.6331 21.4998 20.0714V20.0714C21.4851 21.5098 20.3072 22.6759 18.8688 22.6761L17.5043 22.6762" stroke="#3B66BC" stroke-width="1.5" stroke-linecap="round"/>
<path d="M13.667 20.0718L17.9918 20.0711" stroke="#3B66BC" stroke-width="1.5" stroke-linecap="round" stroke-linejoin="round"/>
</svg>
