<svg width="20" height="20" viewBox="0 0 20 20" fill="none" xmlns="http://www.w3.org/2000/svg">
<g clip-path="url(#clip0_3215_19928)">
<path fill-rule="evenodd" clip-rule="evenodd" d="M14.3929 15.2438C16.8992 14.9442 19.0812 13.4001 19.3549 11.9897H19.3538C19.7859 9.76779 19.7503 6.56646 19.7503 6.56646C19.7503 2.22725 16.9078 0.955767 16.9078 0.955767C15.4747 0.297398 13.0136 0.020473 10.4567 0H10.3942C7.83718 0.020473 5.37826 0.297398 3.94515 0.955767C3.94515 0.955767 1.10155 2.22725 1.10263 6.56646C1.10263 6.8299 1.10126 7.10715 1.09984 7.39589C1.0959 8.19487 1.09153 9.08175 1.11448 10.007C1.21685 14.2503 1.89246 18.4322 5.81466 19.4688C7.62275 19.9472 9.17547 20.0474 10.4265 19.9784C12.6947 19.8524 13.9683 19.1692 13.9683 19.1692L13.894 17.5238C13.894 17.5238 12.2734 18.0357 10.4534 17.9732C8.65071 17.9118 6.74672 17.7792 6.45471 15.5649C6.42777 15.3709 6.41377 15.163 6.41377 14.9442C6.41377 14.9442 8.18415 15.3774 10.4276 15.4798C11.7993 15.5433 13.0858 15.4 14.3929 15.2438ZM16.3978 12.1558V6.90288C16.3978 5.82966 16.1241 4.97626 15.5757 4.34483C15.0089 3.7134 14.2676 3.39014 13.3473 3.39014C12.2817 3.39014 11.4757 3.7996 10.9423 4.61852L10.424 5.48701L9.90572 4.61852C9.37234 3.7996 8.56528 3.39014 7.50068 3.39014C6.58047 3.39014 5.83805 3.7134 5.27235 4.34483C4.72389 4.97626 4.4502 5.82966 4.4502 6.90288V12.1558H6.53198V7.05696C6.53198 5.98159 6.98346 5.43636 7.88859 5.43636C8.88853 5.43636 9.38958 6.08288 9.38958 7.36298V10.1538H11.4584V7.36298C11.4584 6.08396 11.9595 5.43636 12.9594 5.43636C13.8635 5.43636 14.316 5.98159 14.316 7.05696V12.1558H16.3978Z" fill="#FFFEFB"/>
</g>
<defs>
<clipPath id="clip0_3215_19928">
<rect width="18.6552" height="20" fill="white" transform="translate(1.09619)"/>
</clipPath>
</defs>
</svg>
