<svg width="32" height="32" viewBox="0 0 32 32" fill="none" xmlns="http://www.w3.org/2000/svg">
<g clip-path="url(#clip0_414_31874)">
<path d="M10.651 20V13.656H9.403V12.161C10.222 12.161 10.807 11.94 11.08 11.433H12.51V20H10.651ZM18.0692 20H16.1192L18.7712 13.149H14.9752V11.55H20.7082V12.915L18.0692 20Z" fill="black"/>
<path d="M5.44434 9.55074C5.44434 8.26187 6.48917 7.21704 7.77803 7.21704H24.2228C25.5117 7.21704 26.5565 8.26187 26.5565 9.55074V21.7488H5.44434V9.55074Z" fill="#FFFEFB" stroke="#3B66BC" stroke-width="1.5" stroke-linejoin="round"/>
<path d="M3.44824 21.7488H28.5522V22.8139C28.5522 23.9014 27.6707 24.7829 26.5832 24.7829H5.41725C4.3298 24.7829 3.44824 23.9014 3.44824 22.8139V21.7488Z" fill="#FFFEFB" stroke="#3B66BC" stroke-width="1.5" stroke-linejoin="round"/>
<path d="M12.7402 21.8994H19.2603C19.2603 22.6623 18.6419 23.2807 17.879 23.2807H14.1215C13.3586 23.2807 12.7402 22.6623 12.7402 21.8994Z" fill="#3B66BC"/>
<path d="M15.3131 19.4182C12.6006 17.9378 11.2568 15.7654 11.2568 12.8691V12.3486C11.2568 11.967 11.5103 11.6335 11.8726 11.5138C13.5083 10.9732 14.5689 10.3393 15.2034 9.86433C15.6413 9.5365 16.3447 9.52935 16.7802 9.86046C17.4364 10.3594 18.5212 11.0243 20.107 11.5216C20.4791 11.6383 20.7436 11.9763 20.7436 12.3663V12.8691C20.7436 15.7692 19.3638 17.9441 16.5767 19.4252C16.1018 19.6776 15.7762 19.6709 15.3131 19.4182Z" stroke="#3B66BC" stroke-width="1.5" stroke-linejoin="round"/>
<path d="M14.4746 14.6759L15.6504 15.8817L17.6344 13.53" stroke="#3B66BC" stroke-width="1.5" stroke-linecap="round" stroke-linejoin="round"/>
</g>
<defs>
<clipPath id="clip0_414_31874">
<rect width="32" height="32" fill="white"/>
</clipPath>
</defs>
</svg>
