<svg width="20" height="20" viewBox="0 0 20 20" fill="none" xmlns="http://www.w3.org/2000/svg">
<g clip-path="url(#clip0_3215_19936)">
<path fill-rule="evenodd" clip-rule="evenodd" d="M16.1721 8.45899C16.581 8.0501 17.1375 7.78875 17.7698 7.78875C20.1009 7.78875 20.8765 10.9123 18.773 11.9915C18.8658 12.3245 18.9037 12.6954 18.9037 13.0495C18.9037 16.582 14.9244 19.4442 10.0177 19.4442C5.13209 19.4442 1.15278 16.582 1.15278 13.0495C1.15278 12.6954 1.18651 12.3413 1.26238 12.0083C-0.883239 10.9334 -0.116042 7.78875 2.2277 7.78875C2.86001 7.78875 3.43751 8.0501 3.8464 8.47585C5.35551 7.43466 7.36202 6.76441 9.59195 6.67168L10.8734 0.871328C10.9282 0.664775 11.1306 0.517237 11.3371 0.572037L15.4429 1.48256C15.7211 0.947205 16.2817 0.555176 16.9309 0.555176C17.8625 0.555176 18.6044 1.31816 18.6044 2.22868C18.6044 3.1392 17.8583 3.90218 16.9309 3.90218C16.0204 3.90218 15.2785 3.16027 15.2785 2.24975L11.5605 1.41511L10.3929 6.67589C12.6397 6.74755 14.6673 7.4178 16.1721 8.45899ZM6.33762 10.5583C5.40602 10.5583 4.66412 11.3044 4.66412 12.2318C4.66412 13.1423 5.41024 13.8884 6.33762 13.8842C7.24814 13.8842 7.99004 13.1423 7.99004 12.2318C7.99004 11.3002 7.24814 10.5583 6.33762 10.5583ZM13.6977 16.1731C12.1633 17.7075 7.8341 17.7075 6.29971 16.1731C6.13109 16.0256 6.13109 15.7642 6.29971 15.5956C6.44725 15.4481 6.7086 15.4481 6.85614 15.5956C8.02801 16.797 11.9146 16.818 13.137 15.5956C13.2846 15.4481 13.5459 15.4481 13.6935 15.5956C13.8663 15.7642 13.8663 16.0256 13.6977 16.1731ZM12.0117 12.236C12.0117 13.1465 12.7536 13.8884 13.6641 13.8884C14.5915 13.8884 15.3334 13.1423 15.3376 12.236C15.3376 11.3044 14.5915 10.5625 13.6641 10.5625C12.7536 10.5625 12.0117 11.3086 12.0117 12.236Z" fill="#FFFEFB"/>
</g>
<defs>
<clipPath id="clip0_3215_19936">
<rect width="20" height="20" fill="white"/>
</clipPath>
</defs>
</svg>
