<svg width="32" height="32" viewBox="0 0 32 32" fill="none" xmlns="http://www.w3.org/2000/svg">
<g clip-path="url(#clip0_414_31871)">
<path d="M10.651 20V13.656H9.403V12.161C10.222 12.161 10.807 11.94 11.08 11.433H12.51V20H10.651ZM21.9692 17.244C21.9692 18.986 20.6042 20.156 18.8232 20.156C16.7822 20.156 15.3392 18.869 15.3392 15.931C15.3392 13.123 16.8082 11.394 18.8752 11.394C20.3052 11.394 21.3062 12.07 21.8522 13.123L20.3962 13.955C19.9932 13.318 19.5382 13.006 18.8752 13.006C18.0172 13.006 17.2372 13.604 17.1072 15.359C17.5882 14.787 18.3032 14.475 19.0962 14.475C20.7992 14.475 21.9692 15.58 21.9692 17.244ZM18.7842 18.544C19.5902 18.544 20.2012 18.037 20.2012 17.244C20.2012 16.464 19.5902 15.97 18.7842 15.97C17.9652 15.97 17.3412 16.451 17.3412 17.218C17.3412 18.011 17.9652 18.544 18.7842 18.544Z" fill="black"/>
<path d="M14.4247 27.5481C8.20577 24.1541 5.125 19.1735 5.125 12.5332V11.0496C5.125 10.3467 5.594 9.7308 6.26297 9.51527C10.5242 8.1424 13.1292 6.48518 14.5545 5.34995C15.3426 4.7222 16.6267 4.71015 17.412 5.34141C18.8962 6.5345 21.5818 8.28363 25.6993 9.53137C26.3866 9.73965 26.8749 10.3638 26.8749 11.082V12.5332C26.8749 19.1823 23.7114 24.1685 17.3217 27.5641C16.2328 28.1428 15.4863 28.1275 14.4247 27.5481Z" fill="#FFFEFB" stroke="#3B66BC" stroke-width="1.5" stroke-linejoin="round"/>
<mask id="mask0_414_31871" style="mask-type:alpha" maskUnits="userSpaceOnUse" x="8" y="8" width="16" height="16">
<circle cx="16" cy="16" r="6.31155" fill="#FFFBF4" stroke="#32559D" stroke-width="1.5189"/>
</mask>
<g mask="url(#mask0_414_31871)">
<circle cx="16" cy="16" r="6.31155" fill="#FFFEFB" stroke="#3B66BC" stroke-width="1.4"/>
<circle cx="15.9996" cy="15.4029" r="2.42931" fill="#FFFEFB" stroke="#3B66BC" stroke-width="1.4" stroke-linejoin="round"/>
<path d="M11.5195 21.5775C11.5195 19.5091 13.1963 17.8323 15.2647 17.8323H16.7358C18.8042 17.8323 20.481 19.5091 20.481 21.5775C20.481 22.0084 20.1317 22.3577 19.7008 22.3577H12.2998C11.8689 22.3577 11.5195 22.0084 11.5195 21.5775Z" fill="#FFFEFB" stroke="#3B66BC" stroke-width="1.4" stroke-linejoin="round"/>
</g>
<circle cx="16" cy="16" r="6.31155" stroke="#3B66BC" stroke-width="1.5"/>
</g>
<defs>
<clipPath id="clip0_414_31871">
<rect width="32" height="32" fill="white"/>
</clipPath>
</defs>
</svg>
