<svg width="32" height="32" viewBox="0 0 32 32" fill="none" xmlns="http://www.w3.org/2000/svg">
<g clip-path="url(#clip0_414_31877)">
<path d="M10.651 20V13.656H9.403V12.161C10.222 12.161 10.807 11.94 11.08 11.433H12.51V20H10.651ZM18.6932 20.156C16.5482 20.156 15.2612 19.142 15.2612 17.647C15.2612 16.763 15.8072 16.074 16.7692 15.697C16.0022 15.307 15.5732 14.644 15.5732 13.812C15.5732 12.46 16.7302 11.394 18.6932 11.394C20.6432 11.394 21.8002 12.46 21.8002 13.812C21.8002 14.644 21.3712 15.307 20.6042 15.697C21.5662 16.074 22.1122 16.763 22.1122 17.647C22.1122 19.142 20.8252 20.156 18.6932 20.156ZM18.6932 14.982C19.4602 14.982 20.0452 14.605 20.0452 13.903C20.0452 13.227 19.4602 12.811 18.6932 12.811C17.9132 12.811 17.3282 13.227 17.3282 13.903C17.3282 14.605 17.9132 14.982 18.6932 14.982ZM18.6932 18.687C19.5642 18.687 20.2272 18.297 20.2272 17.556C20.2272 16.828 19.5512 16.438 18.6932 16.438C17.8222 16.438 17.1462 16.828 17.1462 17.556C17.1462 18.297 17.8222 18.687 18.6932 18.687Z" fill="black"/>
<path d="M12.0141 11.5379C12.3332 9.63145 14.1373 8.34457 16.0438 8.6636L24.6108 10.0972C26.5173 10.4163 27.8042 12.2204 27.4852 14.1269L26.0515 22.6939C25.7325 24.6004 23.9284 25.8873 22.0219 25.5683L13.4548 24.1346C11.5483 23.8156 10.2615 22.0115 10.5805 20.105L12.0141 11.5379Z" fill="#FFFEFB" stroke="#3B66BC" stroke-width="1.5" stroke-linejoin="round"/>
<path d="M6.43517 21.0496C6.79026 23.23 8.84567 24.7097 11.026 24.3546L20.4887 22.8135C22.6691 22.4584 24.1488 20.403 23.7937 18.2226L22.2526 8.75996C21.8975 6.57959 19.8421 5.09991 17.6617 5.455L8.19903 6.9961C6.01866 7.35119 4.53898 9.4066 4.89407 11.587L6.43517 21.0496Z" fill="#FFFEFB" stroke="#3B66BC" stroke-width="1.5" stroke-linejoin="round"/>
<path d="M14.4825 20.2786C11.3998 19.1946 9.62813 17.1557 9.13582 14.1328L9.04736 13.5896C8.9825 13.1914 9.1903 12.8002 9.54809 12.6136C11.1634 11.7714 12.1625 10.9296 12.744 10.326C13.1454 9.90939 13.8783 9.78236 14.3891 10.0539C15.1588 10.4632 16.4039 10.9727 18.1436 11.2221C18.5517 11.2807 18.8853 11.5886 18.9516 11.9955L19.0371 12.5203C19.53 15.5472 18.4595 18.0516 15.8025 20.0711C15.3497 20.4152 15.0088 20.4636 14.4825 20.2786Z" fill="#FFFEFB" stroke="#3B66BC" stroke-width="1.5" stroke-linejoin="round"/>
<path d="M12.8012 15.4716L14.2333 16.5302L15.9043 13.7385" stroke="#3B66BC" stroke-width="1.5" stroke-linecap="round" stroke-linejoin="round"/>
</g>
<defs>
<clipPath id="clip0_414_31877">
<rect width="32" height="32" fill="white"/>
</clipPath>
</defs>
</svg>
