<svg width="20" height="20" viewBox="0 0 20 20" fill="none" xmlns="http://www.w3.org/2000/svg">
<g clip-path="url(#clip0_3215_19973)">
<path fill-rule="evenodd" clip-rule="evenodd" d="M0.736739 0.000463876C11.2261 0.377025 19.6248 8.82486 19.9995 19.2632C20.014 19.6663 19.6883 20 19.285 20H17.1391C16.754 20 16.4406 19.6949 16.4249 19.3101C16.075 10.7767 9.22461 3.92509 0.689864 3.57514C0.305133 3.55934 0 3.24595 0 2.8609V0.715015C0 0.311668 0.333615 -0.0140004 0.736739 0.000463876ZM13.5598 19.2504C13.1869 12.3487 7.65873 6.81355 0.749596 6.4402C0.341785 6.41814 0 6.74582 0 7.15421V9.30015C0 9.67581 0.289731 9.99086 0.664596 10.0152C5.65708 10.3404 9.6589 14.3323 9.98474 19.3354C10.0092 19.7102 10.3242 20 10.6998 20H12.8458C13.2542 20 13.5819 19.6582 13.5598 19.2504ZM5.71788 17.1409C5.71788 18.7199 4.43789 19.9999 2.85892 19.9999C1.27995 19.9999 0 18.7199 0 17.1409C0 15.562 1.28 14.282 2.85896 14.282C4.43793 14.282 5.71788 15.562 5.71788 17.1409Z" fill="#FFFEFB"/>
</g>
<defs>
<clipPath id="clip0_3215_19973">
<rect width="20" height="20" fill="white"/>
</clipPath>
</defs>
</svg>
