<svg width="20" height="20" viewBox="0 0 20 20" fill="none" xmlns="http://www.w3.org/2000/svg">
<g clip-path="url(#clip0_3215_19944)">
<path fill-rule="evenodd" clip-rule="evenodd" d="M17.814 3.49107C18.6745 3.71899 19.3522 4.3906 19.5822 5.24337C20.0001 6.78906 20.0001 10.014 20.0001 10.014C20.0001 10.014 20.0001 13.239 19.5822 14.7846C19.3522 15.6374 18.6745 16.2811 17.814 16.509C16.2542 16.9231 10.0001 16.9231 10.0001 16.9231C10.0001 16.9231 3.74588 16.9231 2.18614 16.509C1.32565 16.2811 0.64794 15.6374 0.417922 14.7846C0 13.239 0 10.014 0 10.014C0 10.014 0 6.78906 0.417922 5.24337C0.64794 4.3906 1.32565 3.71902 2.18614 3.49107C3.74588 3.0769 10.0001 3.0769 10.0001 3.0769C10.0001 3.0769 16.2543 3.0769 17.814 3.49107ZM7.95454 7.08591V12.9419L13.1819 10.014L7.95454 7.08591Z" fill="#FFFEFB"/>
</g>
<defs>
<clipPath id="clip0_3215_19944">
<rect width="20" height="20" fill="white"/>
</clipPath>
</defs>
</svg>
